<svg width="89" height="89" viewBox="0 0 89 89" fill="none" xmlns="http://www.w3.org/2000/svg">
<path d="M81.5851 60.0397C81.5851 73.538 73.538 81.5851 60.0397 81.5851H55.6268C53.5872 81.5851 51.9185 79.9164 51.9185 77.8768V56.4797C51.9185 55.4785 52.7342 54.6256 53.7355 54.6256L60.2622 54.5143C60.7814 54.4772 61.2264 54.1064 61.3376 53.5872L62.6356 46.5043C62.7468 45.8368 62.2276 45.2064 61.523 45.2064L53.6243 45.3176C52.5859 45.3176 51.7702 44.5018 51.7331 43.5006L51.5847 34.4151C51.5847 33.8218 52.0668 33.3027 52.6972 33.3027L61.5971 33.1543C62.2276 33.1543 62.7097 32.6723 62.7097 32.0418L62.5613 23.1418C62.5613 22.5113 62.0793 22.0293 61.4489 22.0293L51.4363 22.1777C45.2805 22.2889 40.3856 27.3322 40.4968 33.488L40.6822 43.6859C40.7193 44.7243 39.9035 45.5401 38.8652 45.5772L34.4151 45.6514C33.7847 45.6514 33.3027 46.1334 33.3027 46.7638L33.4139 53.8097C33.4139 54.4402 33.8959 54.9222 34.5264 54.9222L38.9764 54.8481C40.0147 54.8481 40.8305 55.6639 40.8676 56.6651L41.2013 77.8027C41.2384 79.8793 39.5696 81.5851 37.493 81.5851H28.9639C15.4655 81.5851 7.41846 73.538 7.41846 60.0026V28.9639C7.41846 15.4655 15.4655 7.41846 28.9639 7.41846H60.0397C73.538 7.41846 81.5851 15.4655 81.5851 28.9639V60.0397V60.0397Z" fill="#878C95"/>
</svg>
