<svg width="90" height="89" viewBox="0 0 90 89" fill="none" xmlns="http://www.w3.org/2000/svg">
<path d="M60.6232 7.41846H29.5474C16.049 7.41846 8.00195 15.4655 8.00195 28.9639V60.0026C8.00195 73.538 16.049 81.5851 29.5474 81.5851H60.5861C74.0845 81.5851 82.1315 73.538 82.1315 60.0397V28.9639C82.1686 15.4655 74.1215 7.41846 60.6232 7.41846ZM45.0853 58.8901C37.1495 58.8901 30.697 52.4376 30.697 44.5018C30.697 36.566 37.1495 30.1135 45.0853 30.1135C53.0211 30.1135 59.4736 36.566 59.4736 44.5018C59.4736 52.4376 53.0211 58.8901 45.0853 58.8901ZM67.0386 25.5151C66.8532 25.9601 66.5936 26.368 66.2599 26.7389C65.889 27.0726 65.4811 27.3322 65.0361 27.5176C64.5911 27.703 64.109 27.8143 63.627 27.8143C62.6257 27.8143 61.6986 27.4435 60.994 26.7389C60.6603 26.368 60.4007 25.9601 60.2153 25.5151C60.0299 25.0701 59.9186 24.588 59.9186 24.106C59.9186 23.6239 60.0299 23.1418 60.2153 22.6968C60.4007 22.2147 60.6603 21.8439 60.994 21.473C61.847 20.6201 63.1449 20.2122 64.3315 20.4718C64.5911 20.5089 64.8136 20.583 65.0361 20.6943C65.2586 20.7685 65.4811 20.8797 65.7036 21.028C65.889 21.1393 66.0744 21.3247 66.2599 21.473C66.5936 21.8439 66.8532 22.2147 67.0386 22.6968C67.224 23.1418 67.3353 23.6239 67.3353 24.106C67.3353 24.588 67.224 25.0701 67.0386 25.5151Z" fill="#878C95"/>
</svg>
