<svg width="82" height="83" viewBox="0 0 82 83" fill="none" xmlns="http://www.w3.org/2000/svg">
<path fill-rule="evenodd" clip-rule="evenodd" d="M18.2106 82.2909H1.27474V27.8413H18.2106V82.2909ZM9.83371 20.3754C7.16282 20.3754 4.85615 19.4042 2.91369 17.4617C0.971229 15.5193 0 13.2126 0 10.5417C0 7.87083 0.971229 5.56416 2.91369 3.6217C4.85615 1.67924 7.16282 0.708008 9.83371 0.708008C12.5046 0.708008 14.8113 1.67924 16.7537 3.6217C18.6962 5.56416 19.6674 7.87083 19.6674 10.5417C19.6674 13.2126 18.6962 15.5193 16.7537 17.4617C14.8113 19.4042 12.5046 20.3754 9.83371 20.3754ZM81.5836 82.2919H64.6478V55.7045C64.6478 51.334 64.2836 48.1775 63.5551 46.235C62.2197 42.9571 59.6095 41.3182 55.7246 41.3182C51.8397 41.3182 49.1081 42.775 47.5298 45.6887C46.3158 47.874 45.7088 51.0912 45.7088 55.3403V82.2919H28.9551V27.8424H45.1625V35.3087H45.3446C46.5586 32.8806 48.5011 30.8775 51.1719 29.2992C54.0856 27.3567 57.4849 26.3855 61.3699 26.3855C69.2611 26.3855 74.785 28.8743 77.9415 33.8518C80.3695 37.8582 81.5836 44.0498 81.5836 52.4266V82.2919Z" fill="#878C95"/>
</svg>
