<svg width="714" height="152" viewBox="0 0 714 152" fill="none" xmlns="http://www.w3.org/2000/svg">
<g filter="url(#filter0_d_27_404)">
<rect x="11" width="129.5" height="129.5" rx="32.375" fill="url(#paint0_linear_27_404)" shape-rendering="crispEdges"/>
<g filter="url(#filter1_d_27_404)">
<path opacity="0.4" d="M75.7502 46.674V89.9216C75.2915 89.9216 74.8059 89.8406 74.4282 89.6248L74.3203 89.5708C69.1403 86.738 60.1022 83.7703 54.2478 82.9879L53.4654 82.88C50.8754 82.5562 48.771 80.1281 48.771 77.5381V44.9473C48.771 41.7368 51.388 39.3086 54.5985 39.5784C60.2641 40.0371 68.8435 42.8969 73.6458 45.8916L74.3203 46.2962C74.725 46.5391 75.2376 46.674 75.7502 46.674Z" fill="#58BF73"/>
<path d="M102.729 44.9743V77.5381C102.729 80.1281 100.625 82.5562 98.0348 82.88L97.1445 82.9879C91.263 83.7703 82.198 86.765 77.018 89.6248C76.6673 89.8406 76.2356 89.9216 75.75 89.9216V46.674C76.2626 46.674 76.7752 46.5391 77.1799 46.2962L77.6385 45.9995C82.4408 42.9778 91.0472 40.091 96.7128 39.6054H96.8747C100.085 39.3356 102.729 41.7368 102.729 44.9743Z" fill="#58BF73"/>
<path d="M64.2837 57.3037H58.2134C57.1072 57.3037 56.1899 56.3865 56.1899 55.2803C56.1899 54.1742 57.1072 53.2569 58.2134 53.2569H64.2837C65.3898 53.2569 66.3071 54.1742 66.3071 55.2803C66.3071 56.3865 65.3898 57.3037 64.2837 57.3037Z" fill="#58BF73"/>
<path d="M66.3071 65.3975H58.2134C57.1072 65.3975 56.1899 64.4802 56.1899 63.3741C56.1899 62.2679 57.1072 61.3506 58.2134 61.3506H66.3071C67.4133 61.3506 68.3306 62.2679 68.3306 63.3741C68.3306 64.4802 67.4133 65.3975 66.3071 65.3975Z" fill="#58BF73"/>
</g>
<rect x="13.6979" y="2.69792" width="124.104" height="124.104" rx="29.6771" stroke="#FCFCFD" stroke-width="5.39583" shape-rendering="crispEdges"/>
</g>
<path d="M165.751 35.8065H178.404L195.35 77.1671H196.019L212.965 35.8065H225.618V92.8864H215.696V53.6718H215.166L199.391 92.7191H191.978L176.203 53.5882H175.673V92.8864H165.751V35.8065ZM247.181 93.7504C244.469 93.7504 242.025 93.2673 239.851 92.3011C237.696 91.3163 235.986 89.867 234.723 87.9532C233.478 86.0394 232.856 83.6796 232.856 80.8739C232.856 78.4585 233.302 76.461 234.193 74.8817C235.085 73.3023 236.302 72.0388 237.845 71.0912C239.387 70.1436 241.124 69.4282 243.056 68.9451C245.007 68.4435 247.023 68.0811 249.104 67.8582C251.613 67.598 253.647 67.3658 255.208 67.1614C256.769 66.9384 257.902 66.604 258.608 66.158C259.333 65.6935 259.695 64.9782 259.695 64.012V63.8447C259.695 61.7451 259.073 60.1193 257.828 58.9673C256.583 57.8153 254.79 57.2393 252.449 57.2393C249.978 57.2393 248.017 57.7781 246.568 58.8558C245.137 59.9335 244.171 61.2063 243.67 62.6742L234.249 61.3363C234.992 58.7351 236.219 56.5611 237.928 54.8145C239.638 53.0494 241.728 51.7301 244.199 50.8568C246.67 49.965 249.402 49.519 252.393 49.519C254.456 49.519 256.509 49.7606 258.553 50.2437C260.597 50.7268 262.464 51.5257 264.155 52.6406C265.846 53.7368 267.202 55.2326 268.224 57.1278C269.264 59.0231 269.785 61.3921 269.785 64.2349V92.8864H260.086V87.0056H259.751C259.138 88.1947 258.274 89.3096 257.159 90.3501C256.063 91.372 254.679 92.1989 253.006 92.8306C251.353 93.4438 249.411 93.7504 247.181 93.7504ZM249.801 86.3367C251.826 86.3367 253.582 85.9372 255.069 85.1382C256.555 84.3207 257.698 83.243 258.497 81.9052C259.314 80.5674 259.723 79.1088 259.723 77.5294V72.4848C259.407 72.7449 258.869 72.9864 258.107 73.2094C257.364 73.4324 256.527 73.6275 255.598 73.7947C254.669 73.9619 253.75 74.1106 252.839 74.2406C251.929 74.3707 251.139 74.4822 250.47 74.5751C248.965 74.7795 247.618 75.1139 246.429 75.5785C245.24 76.043 244.301 76.6933 243.614 77.5294C242.926 78.347 242.583 79.4061 242.583 80.7067C242.583 82.5648 243.261 83.9676 244.617 84.9153C245.974 85.8629 247.702 86.3367 249.801 86.3367ZM278.36 92.8864V50.0764H288.449V92.8864H278.36ZM283.433 44.0006C281.835 44.0006 280.46 43.471 279.308 42.4119C278.156 41.3342 277.58 40.0429 277.58 38.5378C277.58 37.0142 278.156 35.7229 279.308 34.6638C280.46 33.5861 281.835 33.0472 283.433 33.0472C285.049 33.0472 286.424 33.5861 287.558 34.6638C288.71 35.7229 289.286 37.0142 289.286 38.5378C289.286 40.0429 288.71 41.3342 287.558 42.4119C286.424 43.471 285.049 44.0006 283.433 44.0006ZM307.344 35.8065V92.8864H297.255V35.8065H307.344ZM335.102 93.7225C330.809 93.7225 327.103 92.8306 323.981 91.0469C320.878 89.2446 318.49 86.699 316.818 83.4102C315.146 80.1029 314.31 76.2102 314.31 71.7322C314.31 67.3286 315.146 63.4638 316.818 60.1379C318.509 56.7934 320.869 54.1921 323.897 52.334C326.926 50.4574 330.484 49.519 334.572 49.519C337.211 49.519 339.7 49.9464 342.041 50.8011C344.401 51.6372 346.482 52.9379 348.285 54.703C350.106 56.4682 351.536 58.7165 352.577 61.4478C353.617 64.1606 354.138 67.3937 354.138 71.147V74.2406H319.048V67.4401H344.466C344.448 65.5077 344.03 63.789 343.212 62.284C342.395 60.7603 341.252 59.5619 339.784 58.6886C338.335 57.8153 336.644 57.3787 334.711 57.3787C332.649 57.3787 330.837 57.8803 329.277 58.8837C327.716 59.8685 326.499 61.1691 325.625 62.7856C324.771 64.3836 324.334 66.1395 324.316 68.0533V73.9898C324.316 76.4796 324.771 78.6164 325.681 80.4001C326.592 82.1653 327.864 83.5217 329.5 84.4693C331.135 85.3983 333.048 85.8629 335.241 85.8629C336.709 85.8629 338.037 85.6585 339.227 85.2497C340.416 84.8223 341.447 84.1999 342.32 83.3823C343.193 82.5648 343.853 81.5521 344.299 80.3444L353.719 81.4035C353.125 83.8933 351.991 86.0673 350.319 87.9253C348.666 89.7648 346.547 91.1955 343.965 92.2175C341.382 93.2208 338.428 93.7225 335.102 93.7225ZM361.103 92.8864V50.0764H370.886V57.2114H371.332C372.112 54.7402 373.45 52.8357 375.345 51.4979C377.259 50.1415 379.442 49.4633 381.895 49.4633C382.453 49.4633 383.075 49.4912 383.762 49.5469C384.469 49.5841 385.054 49.6491 385.518 49.742V59.0231C385.091 58.8744 384.413 58.7443 383.484 58.6329C382.573 58.5028 381.691 58.4378 380.836 58.4378C378.997 58.4378 377.343 58.8372 375.875 59.6362C374.426 60.4166 373.283 61.5036 372.447 62.8971C371.611 64.2907 371.193 65.8979 371.193 67.7188V92.8864H361.103ZM400.511 35.8065V41.4922C400.511 43.1273 400.195 44.8274 399.563 46.5926C398.95 48.3392 398.105 50.0114 397.027 51.6094C395.949 53.1887 394.723 54.5451 393.348 55.6785L388.666 52.6406C389.688 51.0984 390.58 49.4354 391.341 47.6517C392.103 45.8493 392.484 43.8148 392.484 41.5479V35.8065H400.511ZM435.411 61.3921L426.213 62.3954C425.953 61.4664 425.498 60.5931 424.847 59.7756C424.216 58.958 423.361 58.2984 422.283 57.7967C421.206 57.295 419.886 57.0442 418.326 57.0442C416.226 57.0442 414.461 57.4994 413.03 58.4099C411.618 59.3203 410.921 60.5002 410.94 61.9495C410.921 63.1944 411.376 64.2071 412.306 64.9875C413.253 65.7678 414.814 66.4089 416.988 66.9106L424.29 68.4713C428.341 69.3446 431.351 70.7289 433.32 72.6241C435.308 74.5194 436.312 76.9999 436.33 80.0657C436.312 82.7599 435.522 85.1382 433.961 87.2007C432.419 89.2446 430.273 90.8425 427.523 91.9945C424.773 93.1465 421.614 93.7225 418.047 93.7225C412.807 93.7225 408.589 92.6262 405.393 90.4337C402.198 88.2226 400.293 85.1475 399.68 81.2084L409.518 80.2608C409.964 82.1932 410.912 83.6518 412.361 84.6365C413.811 85.6213 415.696 86.1137 418.019 86.1137C420.416 86.1137 422.339 85.6213 423.788 84.6365C425.256 83.6518 425.99 82.4347 425.99 80.9854C425.99 79.7591 425.516 78.7465 424.569 77.9475C423.64 77.1485 422.19 76.5354 420.221 76.108L412.919 74.5751C408.812 73.7204 405.774 72.2804 403.805 70.2551C401.835 68.2112 400.86 65.6285 400.878 62.5069C400.86 59.8685 401.575 57.5831 403.024 55.6507C404.492 53.6997 406.527 52.1946 409.128 51.1355C411.748 50.0579 414.767 49.519 418.186 49.519C423.203 49.519 427.151 50.5874 430.031 52.7242C432.93 54.861 434.723 57.7503 435.411 61.3921ZM461.424 92.8864V35.8065H471.514V57.1557H471.932C472.452 56.1152 473.186 55.0096 474.134 53.839C475.081 52.6499 476.363 51.6372 477.98 50.8011C479.596 49.9464 481.659 49.519 484.167 49.519C487.474 49.519 490.457 50.3645 493.114 52.0553C495.789 53.7276 497.908 56.2081 499.468 59.4969C501.048 62.7671 501.837 66.7805 501.837 71.5372C501.837 76.2381 501.066 80.2329 499.524 83.5217C497.982 86.8105 495.882 89.3189 493.225 91.0469C490.568 92.7749 487.558 93.6389 484.195 93.6389C481.742 93.6389 479.708 93.2301 478.091 92.4126C476.475 91.595 475.174 90.6102 474.189 89.4582C473.223 88.2876 472.471 87.1821 471.932 86.1416H471.346V92.8864H461.424ZM471.319 71.4814C471.319 74.2499 471.709 76.6747 472.489 78.7557C473.288 80.8368 474.431 82.4626 475.917 83.6332C477.422 84.7852 479.243 85.3612 481.38 85.3612C483.61 85.3612 485.477 84.7666 486.982 83.5774C488.487 82.3697 489.621 80.7253 490.382 78.6443C491.163 76.5446 491.553 74.157 491.553 71.4814C491.553 68.8244 491.172 66.4646 490.41 64.4022C489.648 62.3397 488.515 60.7232 487.01 59.5526C485.505 58.382 483.628 57.7967 481.38 57.7967C479.225 57.7967 477.394 58.3634 475.889 59.4969C474.384 60.6303 473.242 62.2189 472.461 64.2628C471.699 66.3067 471.319 68.7129 471.319 71.4814ZM527.519 93.7225C523.338 93.7225 519.715 92.8028 516.649 90.9633C513.583 89.1238 511.205 86.5504 509.514 83.243C507.842 79.9356 507.005 76.0708 507.005 71.6486C507.005 67.2264 507.842 63.3524 509.514 60.0264C511.205 56.7005 513.583 54.1178 516.649 52.2783C519.715 50.4388 523.338 49.519 527.519 49.519C531.699 49.519 535.322 50.4388 538.388 52.2783C541.454 54.1178 543.823 56.7005 545.495 60.0264C547.186 63.3524 548.032 67.2264 548.032 71.6486C548.032 76.0708 547.186 79.9356 545.495 83.243C543.823 86.5504 541.454 89.1238 538.388 90.9633C535.322 92.8028 531.699 93.7225 527.519 93.7225ZM527.574 85.6399C529.841 85.6399 531.736 85.0174 533.26 83.7725C534.784 82.5091 535.917 80.8182 536.66 78.7C537.422 76.5818 537.803 74.2221 537.803 71.6208C537.803 69.0009 537.422 66.6318 536.66 64.5136C535.917 62.3769 534.784 60.6767 533.26 59.4132C531.736 58.1498 529.841 57.518 527.574 57.518C525.252 57.518 523.319 58.1498 521.777 59.4132C520.253 60.6767 519.111 62.3769 518.349 64.5136C517.606 66.6318 517.234 69.0009 517.234 71.6208C517.234 74.2221 517.606 76.5818 518.349 78.7C519.111 80.8182 520.253 82.5091 521.777 83.7725C523.319 85.0174 525.252 85.6399 527.574 85.6399ZM573.699 93.7225C569.518 93.7225 565.895 92.8028 562.829 90.9633C559.763 89.1238 557.385 86.5504 555.694 83.243C554.022 79.9356 553.186 76.0708 553.186 71.6486C553.186 67.2264 554.022 63.3524 555.694 60.0264C557.385 56.7005 559.763 54.1178 562.829 52.2783C565.895 50.4388 569.518 49.519 573.699 49.519C577.88 49.519 581.503 50.4388 584.569 52.2783C587.634 54.1178 590.003 56.7005 591.676 60.0264C593.367 63.3524 594.212 67.2264 594.212 71.6486C594.212 76.0708 593.367 79.9356 591.676 83.243C590.003 86.5504 587.634 89.1238 584.569 90.9633C581.503 92.8028 577.88 93.7225 573.699 93.7225ZM573.755 85.6399C576.021 85.6399 577.917 85.0174 579.44 83.7725C580.964 82.5091 582.097 80.8182 582.841 78.7C583.602 76.5818 583.983 74.2221 583.983 71.6208C583.983 69.0009 583.602 66.6318 582.841 64.5136C582.097 62.3769 580.964 60.6767 579.44 59.4132C577.917 58.1498 576.021 57.518 573.755 57.518C571.432 57.518 569.5 58.1498 567.957 59.4132C566.434 60.6767 565.291 62.3769 564.529 64.5136C563.786 66.6318 563.414 69.0009 563.414 71.6208C563.414 74.2221 563.786 76.5818 564.529 78.7C565.291 80.8182 566.434 82.5091 567.957 83.7725C569.5 85.0174 571.432 85.6399 573.755 85.6399ZM610.403 79.4525L610.375 67.2729H611.992L627.377 50.0764H639.166L620.242 71.147H618.151L610.403 79.4525ZM601.206 92.8864V35.8065H611.295V92.8864H601.206ZM628.073 92.8864L614.138 73.4045L620.938 66.2974L640.141 92.8864H628.073ZM678.156 61.3921L668.958 62.3954C668.698 61.4664 668.243 60.5931 667.593 59.7756C666.961 58.958 666.106 58.2984 665.028 57.7967C663.951 57.295 662.631 57.0442 661.071 57.0442C658.971 57.0442 657.206 57.4994 655.775 58.4099C654.363 59.3203 653.666 60.5002 653.685 61.9495C653.666 63.1944 654.122 64.2071 655.051 64.9875C655.998 65.7678 657.559 66.4089 659.733 66.9106L667.035 68.4713C671.086 69.3446 674.096 70.7289 676.065 72.6241C678.053 74.5194 679.057 76.9999 679.075 80.0657C679.057 82.7599 678.267 85.1382 676.706 87.2007C675.164 89.2446 673.018 90.8425 670.268 91.9945C667.518 93.1465 664.359 93.7225 660.792 93.7225C655.552 93.7225 651.334 92.6262 648.139 90.4337C644.943 88.2226 643.038 85.1475 642.425 81.2084L652.263 80.2608C652.709 82.1932 653.657 83.6518 655.106 84.6365C656.556 85.6213 658.442 86.1137 660.764 86.1137C663.161 86.1137 665.084 85.6213 666.533 84.6365C668.001 83.6518 668.735 82.4347 668.735 80.9854C668.735 79.7591 668.261 78.7465 667.314 77.9475C666.385 77.1485 664.935 76.5354 662.966 76.108L655.664 74.5751C651.557 73.7204 648.519 72.2804 646.55 70.2551C644.58 68.2112 643.605 65.6285 643.623 62.5069C643.605 59.8685 644.32 57.5831 645.77 55.6507C647.237 53.6997 649.272 52.1946 651.873 51.1355C654.493 50.0579 657.513 49.519 660.931 49.519C665.948 49.519 669.897 50.5874 672.777 52.7242C675.675 54.861 677.468 57.7503 678.156 61.3921ZM692.04 93.4995C690.35 93.4995 688.9 92.9049 687.693 91.7158C686.485 90.5266 685.89 89.0773 685.909 87.3679C685.89 85.6956 686.485 84.2649 687.693 83.0758C688.9 81.8866 690.35 81.292 692.04 81.292C693.676 81.292 695.097 81.8866 696.305 83.0758C697.531 84.2649 698.153 85.6956 698.172 87.3679C698.153 88.5013 697.856 89.5326 697.28 90.4616C696.723 91.3906 695.98 92.1338 695.051 92.6913C694.14 93.2301 693.137 93.4995 692.04 93.4995Z" fill="#202329"/>
<defs>
<filter id="filter0_d_27_404" x="0.208334" y="0" width="151.083" height="151.083" filterUnits="userSpaceOnUse" color-interpolation-filters="sRGB">
<feFlood flood-opacity="0" result="BackgroundImageFix"/>
<feColorMatrix in="SourceAlpha" type="matrix" values="0 0 0 0 0 0 0 0 0 0 0 0 0 0 0 0 0 0 127 0" result="hardAlpha"/>
<feOffset dy="10.7917"/>
<feGaussianBlur stdDeviation="5.39583"/>
<feComposite in2="hardAlpha" operator="out"/>
<feColorMatrix type="matrix" values="0 0 0 0 0 0 0 0 0 0 0 0 0 0 0 0 0 0 0.08 0"/>
<feBlend mode="normal" in2="BackgroundImageFix" result="effect1_dropShadow_27_404"/>
<feBlend mode="normal" in="SourceGraphic" in2="effect1_dropShadow_27_404" result="shape"/>
</filter>
<filter id="filter1_d_27_404" x="32.5833" y="32.375" width="86.3333" height="86.3333" filterUnits="userSpaceOnUse" color-interpolation-filters="sRGB">
<feFlood flood-opacity="0" result="BackgroundImageFix"/>
<feColorMatrix in="SourceAlpha" type="matrix" values="0 0 0 0 0 0 0 0 0 0 0 0 0 0 0 0 0 0 127 0" result="hardAlpha"/>
<feOffset dy="10.7917"/>
<feGaussianBlur stdDeviation="5.39583"/>
<feComposite in2="hardAlpha" operator="out"/>
<feColorMatrix type="matrix" values="0 0 0 0 0 0 0 0 0 0 0 0 0 0 0 0 0 0 0.05 0"/>
<feBlend mode="normal" in2="BackgroundImageFix" result="effect1_dropShadow_27_404"/>
<feBlend mode="normal" in="SourceGraphic" in2="effect1_dropShadow_27_404" result="shape"/>
</filter>
<linearGradient id="paint0_linear_27_404" x1="75.75" y1="0" x2="75.75" y2="129.5" gradientUnits="userSpaceOnUse">
<stop stop-color="#BDEFD4"/>
<stop offset="1" stop-color="#EFFFF6"/>
</linearGradient>
</defs>
</svg>
