<svg width="81" height="81" viewBox="0 0 81 81" fill="none" xmlns="http://www.w3.org/2000/svg">
<path opacity="0.4" d="M13.9169 51.964L29.0358 67.0829C35.2435 73.2906 45.3228 73.2906 51.5639 67.0829L66.2155 52.4312C72.4233 46.2235 72.4233 36.1442 66.2155 29.9031L51.0633 14.8176C47.8926 11.647 43.5205 9.94485 39.0483 10.1785L22.3608 10.9795C15.6858 11.2799 10.3791 16.5865 10.0454 23.2281L9.24439 39.9156C9.04414 44.4212 10.7463 48.7934 13.9169 51.964Z" fill="#F6F7F7"/>
<path d="M31.7067 42.2186C37.0153 42.2186 41.3187 37.9152 41.3187 32.6066C41.3187 27.2981 37.0153 22.9946 31.7067 22.9946C26.3982 22.9946 22.0947 27.2981 22.0947 32.6066C22.0947 37.9152 26.3982 42.2186 31.7067 42.2186Z" fill="#F6F7F7"/>
<path d="M43.3874 60.1404C42.7532 60.1404 42.1191 59.9068 41.6185 59.4061C40.6506 58.4383 40.6506 56.8363 41.6185 55.8684L54.9685 42.5184C55.9364 41.5505 57.5384 41.5505 58.5062 42.5184C59.4741 43.4863 59.4741 45.0883 58.5062 46.0561L45.1562 59.4061C44.6556 59.9068 44.0215 60.1404 43.3874 60.1404Z" fill="#F6F7F7"/>
</svg>
