<svg width="81" height="81" viewBox="0 0 81 81" fill="none" xmlns="http://www.w3.org/2000/svg">
<path opacity="0.4" d="M74.0996 46.725V56.7375C74.0996 62.2778 69.6274 66.75 64.0871 66.75H60.7496C60.7496 63.0788 57.7459 60.075 54.0746 60.075C50.4034 60.075 47.3996 63.0788 47.3996 66.75H34.0496C34.0496 63.0788 31.0459 60.075 27.3746 60.075C23.7034 60.075 20.6996 63.0788 20.6996 66.75H17.3621C11.8219 66.75 7.34961 62.2778 7.34961 56.7375V46.725H44.0621C47.7334 46.725 50.7371 43.7213 50.7371 40.05V16.6875H56.8782C59.2812 16.6875 61.4839 17.9892 62.6854 20.0584L68.3924 30.0375H64.0871C62.2515 30.0375 60.7496 31.5394 60.7496 33.375V43.3875C60.7496 45.2231 62.2515 46.725 64.0871 46.725H74.0996Z" fill="#F6F7F7"/>
<path d="M27.3747 73.425C31.0612 73.425 34.0497 70.4365 34.0497 66.75C34.0497 63.0635 31.0612 60.075 27.3747 60.075C23.6882 60.075 20.6997 63.0635 20.6997 66.75C20.6997 70.4365 23.6882 73.425 27.3747 73.425Z" fill="#F6F7F7"/>
<path d="M54.0749 73.425C57.7614 73.425 60.7499 70.4365 60.7499 66.75C60.7499 63.0635 57.7614 60.075 54.0749 60.075C50.3884 60.075 47.3999 63.0635 47.3999 66.75C47.3999 70.4365 50.3884 73.425 54.0749 73.425Z" fill="#F6F7F7"/>
<path d="M74.1 41.8191V46.7251H64.0875C62.2519 46.7251 60.75 45.2232 60.75 43.3876V33.3751C60.75 31.5395 62.2519 30.0376 64.0875 30.0376H68.3928L73.2322 38.5148C73.7996 39.516 74.1 40.6509 74.1 41.8191Z" fill="#F6F7F7"/>
<path d="M47.3996 6.67505H20.6996C14.1915 6.67505 8.78479 11.3475 7.61667 17.5219H24.0371C25.4055 17.5219 26.5402 18.6567 26.5402 20.0251C26.5402 21.3934 25.4055 22.5282 24.0371 22.5282H7.34961V27.5344H17.3621C18.7305 27.5344 19.8652 28.6692 19.8652 30.0376C19.8652 31.4059 18.7305 32.5407 17.3621 32.5407H7.34961V37.5469H10.6871C12.0555 37.5469 13.1902 38.6817 13.1902 40.0501C13.1902 41.4184 12.0555 42.5532 10.6871 42.5532H7.34961V46.7251H44.0621C47.7334 46.7251 50.7371 43.7213 50.7371 40.0501V10.0125C50.7371 8.17692 49.2352 6.67505 47.3996 6.67505Z" fill="#F6F7F7"/>
<path d="M7.61696 17.522H4.0124C2.64403 17.522 1.50928 18.6567 1.50928 20.0251C1.50928 21.3935 2.64403 22.5282 4.0124 22.5282H7.3499V20.0251C7.3499 19.1573 7.45008 18.323 7.61696 17.522Z" fill="#F6F7F7"/>
<path d="M4.0124 27.5344C2.64403 27.5344 1.50928 28.6692 1.50928 30.0375C1.50928 31.4059 2.64403 32.5407 4.0124 32.5407H7.3499V27.5344H4.0124Z" fill="#F6F7F7"/>
<path d="M4.0124 37.5469C2.64403 37.5469 1.50928 38.6816 1.50928 40.05C1.50928 41.4184 2.64403 42.5531 4.0124 42.5531H7.3499V37.5469H4.0124Z" fill="#F6F7F7"/>
</svg>
