<svg width="89" height="73" viewBox="0 0 89 73" fill="none" xmlns="http://www.w3.org/2000/svg">
<path fill-rule="evenodd" clip-rule="evenodd" d="M78.5127 11.7732C82.2828 9.5133 85.1778 5.93494 86.5412 1.67131C83.0133 3.76357 79.1055 5.2832 74.9463 6.10227C71.6154 2.55353 66.87 0.335938 61.6183 0.335938C51.534 0.335938 43.3583 8.51128 43.3583 18.595C43.3583 20.026 43.5201 21.4197 43.8313 22.756C28.6559 21.9946 15.2015 14.7252 6.19572 3.67828C4.624 6.37507 3.72355 9.51167 3.72355 12.8579C3.72355 19.1926 6.9474 24.7816 11.8468 28.0559C8.85345 27.9611 6.03816 27.1398 3.57608 25.7722C3.57478 25.8484 3.57478 25.9249 3.57478 26.0017C3.57478 34.8486 9.86881 42.2287 18.2219 43.9059C16.6896 44.3232 15.0765 44.5462 13.411 44.5462C12.2345 44.5462 11.0906 44.4319 9.97592 44.2187C12.2993 51.4731 19.0426 56.7521 27.0327 56.8996C20.7836 61.7967 12.9104 64.7158 4.35576 64.7158C2.88203 64.7158 1.42848 64.6296 0 64.4609C8.08061 69.6416 17.6786 72.6643 27.9901 72.6643C61.5757 72.6643 79.9415 44.8411 79.9415 20.7123C79.9415 19.9206 79.9239 19.1331 79.8887 18.3501C83.456 15.7758 86.5519 12.5597 89 8.89803C85.7254 10.3503 82.2063 11.3318 78.5127 11.7732Z" fill="#878C95"/>
</svg>
