<svg width="81" height="81" viewBox="0 0 81 81" fill="none" xmlns="http://www.w3.org/2000/svg">
<path opacity="0.4" d="M36.54 8.17679C38.8428 6.20767 42.6142 6.20767 44.9505 8.17679L50.2237 12.7158C51.225 13.5835 53.094 14.2844 54.429 14.2844H60.1027C63.6405 14.2844 66.5441 17.188 66.5441 20.7258V26.3995C66.5441 27.7012 67.245 29.6035 68.1127 30.6048L72.6517 35.878C74.6208 38.1809 74.6208 41.9523 72.6517 44.2885L68.1127 49.5618C67.245 50.563 66.5441 52.432 66.5441 53.767V59.4408C66.5441 62.9785 63.6405 65.8822 60.1027 65.8822H54.429C53.1273 65.8822 51.225 66.583 50.2237 67.4508L44.9505 71.9898C42.6476 73.9589 38.8762 73.9589 36.54 71.9898L31.2667 67.4508C30.2655 66.583 28.3965 65.8822 27.0615 65.8822H21.2876C17.7498 65.8822 14.8462 62.9785 14.8462 59.4408V53.7337C14.8462 52.432 14.1453 50.563 13.311 49.5618L8.80533 44.2552C6.86958 41.9523 6.86958 38.2143 8.80533 35.9114L13.311 30.6048C14.1453 29.6035 14.8462 27.7345 14.8462 26.4329V20.6924C14.8462 17.1547 17.7498 14.251 21.2876 14.251H27.0615C28.3631 14.251 30.2655 13.5502 31.2667 12.6824L36.54 8.17679Z" fill="#F6F7F7"/>
<path d="M36.6741 50.63C36.0066 50.63 35.3724 50.363 34.9052 49.8957L26.8284 41.819C25.8606 40.8511 25.8606 39.2491 26.8284 38.2812C27.7963 37.3134 29.3983 37.3134 30.3662 38.2812L36.6741 44.5891L51.0253 30.2379C51.9932 29.27 53.5952 29.27 54.5631 30.2379C55.5309 31.2057 55.5309 32.8077 54.5631 33.7756L38.4429 49.8957C37.9757 50.363 37.3416 50.63 36.6741 50.63Z" fill="#F6F7F7"/>
</svg>
