<svg width="89" height="63" viewBox="0 0 89 63" fill="none" xmlns="http://www.w3.org/2000/svg">
<path fill-rule="evenodd" clip-rule="evenodd" d="M79.3226 2.24886C83.1347 3.27522 86.1405 6.28097 87.1668 10.0931C89.0729 17.0577 88.9996 31.5733 88.9996 31.5733C88.9996 31.5733 88.9996 46.0156 87.1668 52.9801C86.1405 56.7923 83.1347 59.798 79.3226 60.8244C72.358 62.6572 44.4998 62.6572 44.4998 62.6572C44.4998 62.6572 16.7149 62.6572 9.67706 60.7511C5.86488 59.7247 2.85913 56.719 1.83278 52.9068C0 46.0156 0 31.5 0 31.5C0 31.5 0 17.0577 1.83278 10.0931C2.85913 6.28097 5.9382 3.2019 9.67706 2.17555C16.6416 0.342773 44.4998 0.342773 44.4998 0.342773C44.4998 0.342773 72.358 0.342773 79.3226 2.24886ZM35.6287 18.1584L58.795 31.501L35.6287 44.8436V18.1584Z" fill="#878C95"/>
</svg>
